<svg id="609411815" display="block" role="presentation" viewBox="0 0 24 24" xmlns="http://www.w3.org/2000/svg"><path d="M 0 3 C 0 1.343 4.029 0 9 0 C 13.971 0 18 1.343 18 3 C 18 4.657 13.971 6 9 6 C 4.029 6 0 4.657 0 3 Z" fill="transparent" height="6px" id="cXTcglFAT" stroke-dasharray="" stroke-linecap="round" stroke-linejoin="round" stroke-width="var(--js9iwy, 2)" stroke="var(--1m973uw, rgb(0,0,0))" transform="translate(3 2)" width="18px"/><path d="M 0 0 L 0 14 C -0.011 14.976 1.402 15.893 3.79 16.458 C 6.177 17.023 9.24 17.165 12 16.84" fill="transparent" height="17.011600944046606px" id="EvIsJN7mP" stroke-dasharray="" stroke-linecap="round" stroke-linejoin="round" stroke-width="var(--js9iwy, 2)" stroke="var(--1m973uw, rgb(0,0,0))" transform="translate(3 5)" width="12.000067264894069px"/><path d="M 0 0 L 0 3" fill="transparent" height="3px" id="EuMuEJR3d" stroke-dasharray="" stroke-linecap="round" stroke-linejoin="round" stroke-width="var(--js9iwy, 2)" stroke="var(--1m973uw, rgb(0,0,0))" transform="translate(21 5)" width="1px"/><path d="M 3 0 L 0 5 L 4 5 L 1 10" fill="transparent" height="10px" id="tXlclp3bU" stroke-dasharray="" stroke-linecap="round" stroke-linejoin="round" stroke-width="var(--js9iwy, 2)" stroke="var(--1m973uw, rgb(0,0,0))" transform="translate(18 12)" width="4px"/><path d="M 0 0 C 0.003 0.948 1.35 1.84 3.633 2.405 C 5.916 2.97 8.866 3.143 11.59 2.87" fill="transparent" height="2.9969336522831256px" id="DvBHoFK49" stroke-dasharray="" stroke-linecap="round" stroke-linejoin="round" stroke-width="var(--js9iwy, 2)" stroke="var(--1m973uw, rgb(0,0,0))" transform="translate(3 12)" width="11.59px"/></svg>