<svg id="1926560507" display="block" role="presentation" viewBox="0 0 24 24" xmlns="http://www.w3.org/2000/svg"><path d="M 0 10 C 0 4.477 4.477 0 10 0 C 15.523 0 20 4.477 20 10 C 20 15.523 15.523 20 10 20 C 4.477 20 0 15.523 0 10 Z" fill="transparent" height="20px" id="tsoJr6zwU" stroke-dasharray="" stroke-linecap="round" stroke-linejoin="round" stroke-width="var(--js9iwy, 2)" stroke="var(--1m973uw, rgb(0,0,0))" transform="translate(2 2)" width="20px"/><path d="M 0 0 L 4.24 4.24" fill="transparent" height="4.24px" id="rgaNU455L" stroke-dasharray="" stroke-linecap="round" stroke-linejoin="round" stroke-width="var(--js9iwy, 2)" stroke="var(--1m973uw, rgb(0,0,0))" transform="translate(4.93 4.93)" width="4.24px"/><path d="M 0 4.24 L 4.24 0" fill="transparent" height="4.24px" id="yOht4fiRo" stroke-dasharray="" stroke-linecap="round" stroke-linejoin="round" stroke-width="var(--js9iwy, 2)" stroke="var(--1m973uw, rgb(0,0,0))" transform="translate(14.83 4.93)" width="4.24px"/><path d="M 0 0 L 4.24 4.24" fill="transparent" height="4.24px" id="eW8tM8x2T" stroke-dasharray="" stroke-linecap="round" stroke-linejoin="round" stroke-width="var(--js9iwy, 2)" stroke="var(--1m973uw, rgb(0,0,0))" transform="translate(14.83 14.83)" width="4.24px"/><path d="M 4.24 0 L 0 4.24" fill="transparent" height="4.24px" id="Hk6hq_hPR" stroke-dasharray="" stroke-linecap="round" stroke-linejoin="round" stroke-width="var(--js9iwy, 2)" stroke="var(--1m973uw, rgb(0,0,0))" transform="translate(4.93 14.83)" width="4.24px"/><path d="M 0 4 C 0 1.791 1.791 0 4 0 C 6.209 0 8 1.791 8 4 C 8 6.209 6.209 8 4 8 C 1.791 8 0 6.209 0 4 Z" fill="transparent" height="8px" id="bvRIFd2Gb" stroke-dasharray="" stroke-linecap="round" stroke-linejoin="round" stroke-width="var(--js9iwy, 2)" stroke="var(--1m973uw, rgb(0,0,0))" transform="translate(8 8)" width="8px"/></svg>