<svg id="2918494133" display="block" role="presentation" viewBox="0 0 24 24" xmlns="http://www.w3.org/2000/svg"><path d="M 2 12 C 0.895 12 0 11.105 0 10 L 0 2 C 0 0.895 0.895 0 2 0 L 18 0 C 19.105 0 20 0.895 20 2 L 20 10 C 20 11.105 19.105 12 18 12 Z" fill="transparent" height="12px" id="RetsZaHQW" stroke-dasharray="" stroke-linecap="round" stroke-linejoin="round" stroke-width="var(--js9iwy, 2)" stroke="var(--1m973uw, rgb(0,0,0))" transform="translate(2 6)" width="20px"/><path d="M 0 2 C 0 0.895 0.895 0 2 0 C 3.105 0 4 0.895 4 2 C 4 3.105 3.105 4 2 4 C 0.895 4 0 3.105 0 2 Z" fill="transparent" height="4px" id="gIrQFSIn0" stroke-dasharray="" stroke-linecap="round" stroke-linejoin="round" stroke-width="var(--js9iwy, 2)" stroke="var(--1m973uw, rgb(0,0,0))" transform="translate(10 10)" width="4px"/><path d="M 0 0 L 0.01 0 M 12 0 L 12.01 0" fill="transparent" height="1px" id="XvSgvpJux" stroke-dasharray="" stroke-linecap="round" stroke-linejoin="round" stroke-width="var(--js9iwy, 2)" stroke="var(--1m973uw, rgb(0,0,0))" transform="translate(6 12)" width="12.010000000000002px"/></svg>